<?xml version="1.0" encoding="UTF-8"?>
<svg version="1.1" xmlns="http://www.w3.org/2000/svg" width="1119" height="223">
<path d="M0 0 C1.25587529 35.70560324 1.28006872 71.29522616 0 107 C-8.91 107 -17.82 107 -27 107 C-27.33 89.18 -27.66 71.36 -28 53 C-32.3926692 63.981673 -36.63547804 74.66718854 -40.48046875 85.7890625 C-43.02144826 92.97742708 -46.04769762 99.97352034 -49 107 C-56.59 107 -64.18 107 -72 107 C-72.97839844 104.33744141 -72.97839844 104.33744141 -73.9765625 101.62109375 C-80.08348464 84.97360535 -80.08348464 84.97360535 -86.6484375 68.50390625 C-87.89003235 65.28508953 -88.99955665 62.05525085 -90.08447266 58.78100586 C-90.44352692 57.69887314 -90.80258118 56.61674042 -91.17251587 55.5018158 C-91.44558563 54.67621658 -91.7186554 53.85061737 -92 53 C-92.0154612 53.99265114 -92.0154612 53.99265114 -92.03123474 55.00535583 C-92.13905949 61.86671313 -92.25367609 68.72793266 -92.37231445 75.58911133 C-92.41574066 78.15288421 -92.45740985 80.71668746 -92.49731445 83.28051758 C-92.55483147 86.95663628 -92.61857863 90.63260099 -92.68359375 94.30859375 C-92.70866249 96.03981728 -92.70866249 96.03981728 -92.73423767 97.80601501 C-92.75418289 98.86703934 -92.77412811 99.92806366 -92.79467773 101.02124023 C-92.81022202 101.96055893 -92.8257663 102.89987762 -92.84178162 103.86766052 C-93 106 -93 106 -94 107 C-95.99964982 107.08758003 -98.0023611 107.10696576 -100.00390625 107.09765625 C-101.82631836 107.09282227 -101.82631836 107.09282227 -103.68554688 107.08789062 C-104.96494141 107.07951172 -106.24433594 107.07113281 -107.5625 107.0625 C-108.84576172 107.05798828 -110.12902344 107.05347656 -111.45117188 107.04882812 C-114.63416022 107.03699545 -117.81705762 107.02051068 -121 107 C-121.83717505 102.63234468 -122.12644557 98.50647439 -122.12939453 94.06201172 C-122.13114685 93.3941011 -122.13289917 92.72619049 -122.13470459 92.03804016 C-122.13909231 89.83522917 -122.13618858 87.63249929 -122.1328125 85.4296875 C-122.13348815 83.86866236 -122.13446033 82.30763733 -122.13571167 80.74661255 C-122.13718595 77.46322637 -122.13504913 74.17986738 -122.13037109 70.89648438 C-122.1247766 66.77764004 -122.12797575 62.65886183 -122.13382339 58.54001999 C-122.15717924 38.99585357 -121.82632262 19.53006959 -121 0 C-110.44 0 -99.88 0 -89 0 C-85.93746731 6.89069854 -82.95897915 13.79063362 -80.0625 20.75 C-79.61793457 21.81694092 -79.17336914 22.88388184 -78.71533203 23.9831543 C-76.13813191 30.19126095 -73.6536011 36.41664547 -71.28515625 42.70703125 C-68.90909141 48.79524603 -66.32389007 54.79741718 -63.76953125 60.8125 C-62.47572497 63.86088325 -61.21174472 66.91781855 -60 70 C-59.52820313 68.76636719 -59.52820313 68.76636719 -59.046875 67.5078125 C-56.76752365 61.56227553 -54.47180262 55.62552586 -52.09375 49.71875 C-51.00216077 47.00537106 -49.92006696 44.28828529 -48.83813477 41.57104492 C-46.80457608 36.4689057 -44.75230149 31.37648032 -42.625 26.3125 C-38.96556732 17.58985227 -35.49831751 8.78816998 -32 0 C-27.7643915 -0.16752496 -23.52859426 -0.32809332 -19.29248047 -0.48217773 C-17.85100177 -0.5355959 -16.40959259 -0.59092518 -14.96826172 -0.64819336 C-12.89826447 -0.73010997 -10.82811573 -0.80518359 -8.7578125 -0.87890625 C-6.88826904 -0.94960327 -6.88826904 -0.94960327 -4.98095703 -1.02172852 C-2 -1 -2 -1 0 0 Z " fill="#194C2F" transform="translate(293,61)"/>
<path d="M0 0 C7.59462335 -0.12772884 15.18896545 -0.21473821 22.78442383 -0.2746582 C25.36330517 -0.29966143 27.94211666 -0.3336753 30.52075195 -0.37719727 C34.24708382 -0.43847376 37.97247152 -0.46635342 41.69921875 -0.48828125 C43.40316048 -0.52699089 43.40316048 -0.52699089 45.14152527 -0.56648254 C55.70019343 -0.57010705 65.98277615 2.42252398 74.28125 9.19140625 C82.68385043 18.03323352 83.46173499 27.01221215 83.28125 38.55859375 C82.94648195 46.57796244 79.64592618 52.35407382 74 58 C70.19292335 60.8603433 66.53621113 63.48792962 62 65 C63.29870713 68.42066122 64.78669031 71.55952777 66.609375 74.73046875 C67.11726563 75.61669922 67.62515625 76.50292969 68.1484375 77.41601562 C68.67695313 78.33060547 69.20546875 79.24519531 69.75 80.1875 C70.26304687 81.08275391 70.77609375 81.97800781 71.3046875 82.90039062 C74.34845836 88.19639897 77.46609969 93.43168663 80.71191406 98.60668945 C82.17468259 101.3245666 83.09736909 104.05369152 84 107 C79.83773496 107.22359275 75.67869784 107.38625784 71.51220703 107.49438477 C70.09752509 107.5394723 68.68325869 107.60076961 67.27001953 107.67895508 C55.60294882 108.30794092 55.60294882 108.30794092 51.84301758 105.23999023 C50.24158653 102.89346117 49.1031388 100.61495206 48 98 C47.28434397 96.63180615 46.56454523 95.26576802 45.83984375 93.90234375 C45.20062853 92.5831886 44.56651325 91.26155013 43.9375 89.9375 C41.24064845 84.40651664 38.4319367 79.11693089 35 74 C34.65324219 73.41605469 34.30648437 72.83210938 33.94921875 72.23046875 C31.76690234 68.63259575 31.31446549 68.07861637 27 67 C27 80.2 27 93.4 27 107 C18.09 107 9.18 107 0 107 C-0.91125133 71.29296697 -0.96792022 35.70630911 0 0 Z M27 23 C27 30.92 27 38.84 27 47 C30.34125 47.0825 33.6825 47.165 37.125 47.25 C38.68758545 47.30462402 38.68758545 47.30462402 40.28173828 47.36035156 C46.19477201 47.43086668 49.51165971 46.95003043 54 43 C56.4917577 39.20819481 56.21194884 35.50816221 55.6171875 31.15625 C54.65585931 27.79768571 52.69615352 26.10431494 50 24 C47.54724859 22.7736243 45.9494219 22.88584686 43.2109375 22.90234375 C42.36321777 22.90484131 41.51549805 22.90733887 40.64208984 22.90991211 C39.5639502 22.91901611 38.48581055 22.92812012 37.375 22.9375 C32.239375 22.9684375 32.239375 22.9684375 27 23 Z " fill="#1A4D30" transform="translate(422,61)"/>
<path d="M0 0 C1.29349365 0.00523682 2.5869873 0.01047363 3.91967773 0.01586914 C4.9496714 0.01799156 4.9496714 0.01799156 6.00047302 0.02015686 C8.20144949 0.0257706 10.40232557 0.03832532 12.60327148 0.05102539 C14.09220231 0.05603863 15.58113473 0.06060184 17.07006836 0.06469727 C20.72700223 0.07574446 24.38387707 0.09301826 28.04077148 0.11352539 C31.5907059 6.73150267 34.03161052 13.50231772 36.41577148 20.61352539 C37.20976506 22.94609484 38.00533399 25.27812864 38.80249023 27.60961914 C39.1858252 28.73094238 39.56916016 29.85226563 39.96411133 31.00756836 C41.72766609 36.09508392 43.63498318 41.12190477 45.55517578 46.15185547 C47.02796729 50.04803228 48.41609655 53.97092324 49.79077148 57.90258789 C51.97356148 64.11622708 54.18870212 70.31720554 56.43530273 76.50805664 C56.71653488 77.28361404 56.99776703 78.05917145 57.28752136 78.85823059 C58.43724264 82.0275596 59.58782308 85.19657172 60.74072266 88.36474609 C61.59900901 90.72438174 62.45483836 93.08489671 63.31030273 95.44555664 C63.57067825 96.15903763 63.83105377 96.87251862 64.09931946 97.60762024 C65.24251935 100.76707032 66.22447585 103.84834285 67.04077148 107.11352539 C57.14077148 107.11352539 47.24077148 107.11352539 37.04077148 107.11352539 C36.21577148 104.51477539 35.39077148 101.91602539 34.54077148 99.23852539 C34.27973633 98.4214209 34.01870117 97.60431641 33.74975586 96.76245117 C32.04077148 91.33574761 32.04077148 91.33574761 32.04077148 89.11352539 C19.17077148 89.11352539 6.30077148 89.11352539 -6.95922852 89.11352539 C-7.94922852 92.74352539 -8.93922852 96.37352539 -9.95922852 100.11352539 C-10.94922852 102.42352539 -11.93922852 104.73352539 -12.95922852 107.11352539 C-22.19922852 107.11352539 -31.43922852 107.11352539 -40.95922852 107.11352539 C-40.1975672 101.78189615 -39.2019216 97.4217692 -37.36938477 92.46899414 C-37.10914017 91.74975266 -36.84889557 91.03051117 -36.58076477 90.28947449 C-35.73459025 87.95743648 -34.87841657 85.62921942 -34.02172852 83.30102539 C-33.43298884 81.68543416 -32.84461298 80.0697103 -32.2565918 78.45385742 C-28.33980596 67.72313577 -24.31346783 57.03692972 -20.11962891 46.41113281 C-18.10019783 41.26173533 -16.33200607 36.13502432 -14.79467773 30.82348633 C-13.04594786 25.15110129 -10.9076273 19.61096074 -8.83422852 14.05102539 C-8.37918945 12.81674805 -7.92415039 11.5824707 -7.45532227 10.31079102 C-3.6788205 0.14113122 -3.6788205 0.14113122 0 0 Z M12.04077148 32.11352539 C10.76474915 35.88262229 9.49593686 39.65411039 8.22827148 43.42602539 C7.8718457 44.47854492 7.51541992 45.53106445 7.14819336 46.61547852 C6.79692383 47.6628418 6.4456543 48.71020508 6.08374023 49.78930664 C5.60457153 51.21110229 5.60457153 51.21110229 5.11572266 52.66162109 C3.627569 57.44040933 2.35771072 62.28474818 1.04077148 67.11352539 C8.63077148 67.11352539 16.22077148 67.11352539 24.04077148 67.11352539 C21.68430035 58.38012811 21.68430035 58.38012811 18.99780273 49.78930664 C18.6465332 48.74194336 18.29526367 47.69458008 17.93334961 46.61547852 C17.57692383 45.56295898 17.22049805 44.51043945 16.85327148 43.42602539 C16.48524414 42.3309668 16.1172168 41.2359082 15.73803711 40.10766602 C14.84172273 37.44200376 13.94259765 34.77732689 13.04077148 32.11352539 C12.71077148 32.11352539 12.38077148 32.11352539 12.04077148 32.11352539 Z " fill="#1A4D30" transform="translate(344.959228515625,60.886474609375)"/>
<path d="M0 0 C4.8168015 4.16723283 8.42076454 9.81311283 10 16 C10 18.97 10 21.94 10 25 C0.43 25 -9.14 25 -19 25 C-19.99 22.69 -20.98 20.38 -22 18 C-24.1977556 15.7471858 -25.36512097 15.09327607 -28.47265625 14.63671875 C-29.32730469 14.65347656 -30.18195313 14.67023438 -31.0625 14.6875 C-31.91972656 14.69136719 -32.77695313 14.69523437 -33.66015625 14.69921875 C-36.26887304 14.85851846 -36.26887304 14.85851846 -39 17 C-39.51595005 19.32650465 -39.51595005 19.32650465 -39.4375 21.9375 C-39.45683594 22.81277344 -39.47617188 23.68804687 -39.49609375 24.58984375 C-39.20715745 27.07274697 -39.20715745 27.07274697 -37.4375 28.63671875 C-34.26646301 30.41026348 -30.97421229 31.65962557 -27.5625 32.875 C-26.85456299 33.13619629 -26.14662598 33.39739258 -25.41723633 33.66650391 C-22.10486724 34.88823977 -18.78515954 36.07365959 -15.4453125 37.21875 C-6.03307264 40.55930515 3.68565723 45.38680419 9.13671875 54.16796875 C13.02758628 62.42505866 12.58672057 71.5975777 9.875 80.1875 C6.53649708 88.1347655 -0.91543023 94.95771511 -8.5 98.75 C-20.75735709 103.12762753 -37.15415225 102.73542734 -49.3359375 98.265625 C-53.39855999 96.33558147 -56.68084285 94.01534414 -60 91 C-60.55300781 90.56042969 -61.10601562 90.12085938 -61.67578125 89.66796875 C-66.49430871 85.51901335 -68.58957875 80.11459093 -70 74 C-70 71.69 -70 69.38 -70 67 C-60.43 67 -50.86 67 -41 67 C-39.68 69.97 -38.36 72.94 -37 76 C-33.25534533 78.53017207 -29.4291835 78.38852487 -25 78 C-20.69156076 76.41772398 -20.69156076 76.41772398 -18 73 C-17.49904977 70.12693772 -17.49904977 70.12693772 -18 67 C-21.53566047 62.68756564 -25.1981432 60.78895845 -30.375 59.0625 C-31.79736402 58.55736446 -33.21922737 58.05081726 -34.640625 57.54296875 C-35.36185547 57.28950684 -36.08308594 57.03604492 -36.82617188 56.77490234 C-40.28573702 55.54167461 -43.70778905 54.22045689 -47.125 52.875 C-48.30320312 52.41867188 -49.48140625 51.96234375 -50.6953125 51.4921875 C-58.81410836 47.82625367 -65.70923786 42.18452961 -68.9375 33.6875 C-71.69144789 23.74934021 -70.04743609 14.86045401 -65.375 5.875 C-49.36930836 -13.50031093 -19.70367461 -13.37709538 0 0 Z " fill="#1A4D30" transform="translate(146,68)"/>
<path d="M0 0 C5.71600915 5.55161065 9.71397314 11.75567374 11.375 19.5625 C8.43776222 21.03111889 5.76907643 20.81043404 2.5 20.875 C1.26507812 20.91238281 0.03015625 20.94976562 -1.2421875 20.98828125 C-4.625 20.5625 -4.625 20.5625 -6.9765625 18.71875 C-8.625 16.5625 -8.625 16.5625 -10.125 13.75 C-14.12984254 7.55353103 -22.59390067 3.75047496 -29.5625 2.0625 C-39.12036773 0.67952879 -48.21362954 1.7755412 -56.625 6.5625 C-57.676875 7.160625 -58.72875 7.75875 -59.8125 8.375 C-68.56164179 15.17988806 -73.21298289 24.57205758 -74.625 35.5625 C-75.50073651 46.64393504 -73.21356892 56.95714717 -67.625 66.5625 C-67.08875 67.08714844 -66.5525 67.61179687 -66 68.15234375 C-64.625 69.5625 -64.625 69.5625 -64.625 71.5625 C-64.04105469 71.8409375 -63.45710937 72.119375 -62.85546875 72.40625 C-60.75087649 73.49724704 -58.88819071 74.72114454 -56.9375 76.0625 C-48.06421983 81.61239295 -37.52021563 81.49875022 -27.4375 79.875 C-18.43724403 77.79911158 -11.70291402 72.18319189 -6.625 64.5625 C-5.53695358 62.00649149 -4.70179065 59.39613919 -3.88671875 56.7421875 C-3.66544312 56.04988037 -3.44416748 55.35757324 -3.21618652 54.64428711 C-2.67702879 52.95312659 -2.1497765 51.25817821 -1.625 49.5625 C-3.48016235 49.57035522 -3.48016235 49.57035522 -5.37280273 49.57836914 C-9.94424725 49.59641561 -14.51568859 49.60793071 -19.0871582 49.61743164 C-21.06893441 49.62247267 -23.05070689 49.62930538 -25.0324707 49.63793945 C-27.87452109 49.65001515 -30.71652247 49.65573045 -33.55859375 49.66015625 C-34.89608925 49.66789818 -34.89608925 49.66789818 -36.26060486 49.67579651 C-38.38240601 49.67599177 -40.5041078 49.6246003 -42.625 49.5625 C-43.625 48.5625 -43.625 48.5625 -43.72265625 45.83984375 C-43.71105469 44.73769531 -43.69945312 43.63554688 -43.6875 42.5 C-43.67847656 41.39527344 -43.66945313 40.29054687 -43.66015625 39.15234375 C-43.64855469 38.29769531 -43.63695312 37.44304687 -43.625 36.5625 C-36.08001767 36.53937149 -28.53503899 36.52158231 -20.99002934 36.51068783 C-17.48691115 36.50546011 -13.98381715 36.4983645 -10.48071289 36.48706055 C-6.45719159 36.47415794 -2.43369586 36.46927088 1.58984375 36.46484375 C2.85336166 36.45968246 4.11687958 36.45452118 5.41868591 36.44920349 C6.579814 36.44912796 7.74094208 36.44905243 8.93725586 36.44897461 C10.4794706 36.44564369 10.4794706 36.44564369 12.05284119 36.44224548 C14.375 36.5625 14.375 36.5625 15.375 37.5625 C16.92043454 52.44282686 12.41365459 65.7457308 3.375 77.5625 C-3.5905731 86.10962835 -14.20687675 93.07887535 -25.0625 95.25 C-43.57320745 96.97862638 -59.01218757 95.06139038 -73.8515625 83.03515625 C-84.55452281 73.49293952 -90.16958444 60.39073485 -91.4375 46.3125 C-92.13900685 30.41699262 -88.44325341 16.24409455 -78.0625 3.9375 C-76.93712798 2.79203205 -75.79242989 1.66507267 -74.625 0.5625 C-74.13 0.0365625 -73.635 -0.489375 -73.125 -1.03125 C-53.57460162 -20.19064041 -19.74217398 -16.21813908 0 0 Z " fill="#1B4C30" transform="translate(697.625,73.4375)"/>
<path d="M0 0 C27.39 0 54.78 0 83 0 C83 7.26 83 14.52 83 22 C73.76 22 64.52 22 55 22 C55 50.05 55 78.1 55 107 C45.76 107 36.52 107 27 107 C27 78.95 27 50.9 27 22 C18.09 22 9.18 22 0 22 C0 14.74 0 7.48 0 0 Z " fill="#194D30" transform="translate(515,61)"/>
<path d="M0 0 C1.17433594 0.01417969 2.34867188 0.02835938 3.55859375 0.04296875 C5.32396484 0.05263672 5.32396484 0.05263672 7.125 0.0625 C9.99609375 0.23046875 9.99609375 0.23046875 10.99609375 1.23046875 C11.10442675 3.45240898 11.14240799 5.67779335 11.15380859 7.90234375 C11.16142967 8.94889381 11.16142967 8.94889381 11.16920471 10.0165863 C11.17993347 11.53784922 11.18854375 13.05912818 11.19532394 14.58041382 C11.20709825 16.99420425 11.22655174 19.40781456 11.2484436 21.8215332 C11.3100762 28.68678711 11.36392825 35.55202748 11.39746094 42.41748047 C11.41851087 46.61389695 11.45390731 50.80999316 11.49821854 55.00622559 C11.51231017 56.60083215 11.52108541 58.19549549 11.52427292 59.79016113 C11.54263914 68.10631841 11.71245094 75.43927039 14.99609375 83.23046875 C15.32609375 84.22046875 15.65609375 85.21046875 15.99609375 86.23046875 C16.49109375 87.22046875 16.49109375 87.22046875 16.99609375 88.23046875 C18.48109375 88.72546875 18.48109375 88.72546875 19.99609375 89.23046875 C19.99609375 89.89046875 19.99609375 90.55046875 19.99609375 91.23046875 C29.00436191 93.75910543 39.44883562 94.94587742 48.55859375 92.23046875 C54.01853666 89.05377469 57.06012668 85.03757332 59.05381775 79.05819702 C60.02462089 75.11458535 60.26681854 71.71421539 60.29907227 67.65869141 C60.31173126 66.57692123 60.31173126 66.57692123 60.324646 65.47329712 C60.35022755 63.11370109 60.36251363 60.75422952 60.375 58.39453125 C60.39118782 56.74782334 60.40836916 55.10112493 60.42649841 53.45443726 C60.47201462 49.13784153 60.50691899 44.82123298 60.53869629 40.5045166 C60.59075019 33.5743218 60.65556718 26.64426529 60.72691154 19.71424484 C60.74979027 17.29173798 60.76602444 14.86924904 60.78163147 12.44668579 C60.79502986 10.97308141 60.80864393 9.49947896 60.82250977 8.02587891 C60.83677757 6.0889769 60.83677757 6.0889769 60.85133362 4.11294556 C60.99609375 1.23046875 60.99609375 1.23046875 61.99609375 0.23046875 C64.3276943 0.13137573 66.66239317 0.10076371 68.99609375 0.10546875 C70.27484375 0.10289063 71.55359375 0.1003125 72.87109375 0.09765625 C75.99609375 0.23046875 75.99609375 0.23046875 76.99609375 1.23046875 C77.10100048 3.41655842 77.13466571 5.6060826 77.14135742 7.79467773 C77.14471603 8.48101791 77.14807465 9.16735809 77.15153503 9.87449646 C77.1610821 12.15853662 77.16299086 14.44250359 77.1640625 16.7265625 C77.16727552 18.31543508 77.17063962 19.90430737 77.17414856 21.49317932 C77.18015131 24.83489669 77.18198759 28.17658817 77.18139648 31.51831055 C77.18129549 35.77829807 77.19487741 40.03811656 77.21216869 44.29806423 C77.22335649 47.5865605 77.22531352 50.87501701 77.22478676 54.16353035 C77.22595939 55.73223509 77.23034045 57.30094111 77.23811913 58.869627 C77.30427349 73.60552606 76.27830525 87.25178166 65.78515625 98.6328125 C56.71715357 106.73065768 47.63703063 108.35925119 35.93359375 108.48046875 C35.17755859 108.48997559 34.42152344 108.49948242 33.64257812 108.50927734 C24.26773455 108.4542032 15.43873972 106.15652798 8.30859375 99.85546875 C7.54546875 98.98921875 6.78234375 98.12296875 5.99609375 97.23046875 C5.15046875 96.32296875 4.30484375 95.41546875 3.43359375 94.48046875 C-5.36079698 83.66723989 -5.30960193 70.12449331 -5.26953125 56.890625 C-5.27088047 55.31644125 -5.27282314 53.7422579 -5.27532959 52.16807556 C-5.27826272 48.88764432 -5.27403784 45.60732271 -5.26464844 42.3269043 C-5.2531887 38.11790656 -5.25986564 33.90916209 -5.27179337 29.70017338 C-5.27900491 26.45832899 -5.27672846 23.21654519 -5.27153778 19.97469902 C-5.27020273 18.42171638 -5.27184396 16.86872827 -5.27649689 15.31575203 C-5.28155776 13.1544434 -5.27386155 10.99355274 -5.26269531 8.83227539 C-5.26110413 7.60255508 -5.25951294 6.37283478 -5.25787354 5.10585022 C-4.89936994 1.04692352 -4.0490875 0.31065821 0 0 Z " fill="#1B4C30" transform="translate(733.00390625,60.76953125)"/>
<path d="M0 0 C4.79447089 4.08940164 8.01054134 8.78162402 10 14.75 C10 17.06 10 19.37 10 21.75 C4.72 21.75 -0.56 21.75 -6 21.75 C-6.515625 20.533125 -7.03125 19.31625 -7.5625 18.0625 C-9.78957029 13.57654412 -12.62954162 11.112684 -17 8.75 C-23.9832799 6.42224003 -33.23854105 6.74490713 -40 9.75 C-41.40854666 11.56701858 -41.40854666 11.56701858 -42 13.75 C-42.50466797 14.67039062 -42.50466797 14.67039062 -43.01953125 15.609375 C-44.69226382 19.26139671 -44.54009711 22.81891341 -44 26.75 C-41.53680007 31.97198384 -38.12503946 34.41022428 -33 36.75 C-27.65906461 38.57676401 -22.21558158 40.06015894 -16.77929688 41.57421875 C-6.82645962 44.47737058 3.37269686 48.47255429 9 57.75 C12.38811666 66.07475399 12.40788875 76.43045518 9.01953125 84.80078125 C4.87965878 92.71570985 -2.00170011 97.06328364 -10 100.75 C-21.84856925 103.58652479 -36.35105811 103.00124144 -47.125 97.1875 C-54.83335758 92.26038497 -59.52530928 85.48420254 -62 76.75 C-62 75.1 -62 73.45 -62 71.75 C-56.72 71.75 -51.44 71.75 -46 71.75 C-44.53515625 74.51692708 -43.0703125 77.28385417 -41.60546875 80.05078125 C-39.1805022 84.12779313 -37.93823209 85.44264811 -33.375 86.9375 C-25.6696399 88.59971662 -18.1100343 88.47036679 -11 84.75 C-7.01786253 81.27985163 -5.14913418 77.72602789 -4.75 72.4375 C-5.03426194 68.24463631 -5.60035691 66.19948694 -8 62.75 C-14.88097877 56.91828578 -23.88631611 55.14041022 -32.37036133 52.77319336 C-42.65771952 49.87672731 -51.78857358 46.77961283 -58.02734375 37.65625 C-61.62413908 30.60710895 -61.84463224 23.50525968 -61 15.75 C-58.73441624 8.91714379 -54.97054353 2.5681158 -48.7578125 -1.234375 C-47.5530452 -1.83544627 -46.34188371 -2.42385336 -45.125 -3 C-44.22587891 -3.45439453 -44.22587891 -3.45439453 -43.30859375 -3.91796875 C-29.92820923 -10.44852518 -12.01540223 -8.67889384 0 0 Z " fill="#1B4C31" transform="translate(967,67.25)"/>
<path d="M0 0 C1.11785889 -0.00315216 2.23571777 -0.00630432 3.38745117 -0.009552 C5.21240112 -0.00651566 5.21240112 -0.00651566 7.07421875 -0.00341797 C8.31341064 -0.00437469 9.55260254 -0.00533142 10.8293457 -0.00631714 C13.45560156 -0.00699921 16.08176508 -0.00564085 18.70800781 -0.00097656 C22.08100589 0.00472073 25.4539244 0.00144151 28.82691956 -0.00454903 C32.03435552 -0.00902317 35.24178175 -0.00589429 38.44921875 -0.00341797 C39.66585205 -0.0054422 40.88248535 -0.00746643 42.13598633 -0.009552 C43.81277466 -0.00482376 43.81277466 -0.00482376 45.5234375 0 C46.51303467 0.00079559 47.50263184 0.00159119 48.5222168 0.00241089 C50.76171875 0.12939453 50.76171875 0.12939453 51.76171875 1.12939453 C51.83415928 3.14903652 51.84549063 5.17106577 51.82421875 7.19189453 C51.81519531 8.29662109 51.80617188 9.40134766 51.796875 10.53955078 C51.78527344 11.39419922 51.77367187 12.24884766 51.76171875 13.12939453 C49.95985107 13.15912354 49.95985107 13.15912354 48.12158203 13.18945312 C43.67475021 13.26539073 39.2282507 13.35412585 34.78173828 13.44677734 C32.85537261 13.48511621 30.92893415 13.51996036 29.00244141 13.55126953 C26.23703957 13.59681398 23.47214106 13.6548249 20.70703125 13.71533203 C19.41008835 13.73265884 19.41008835 13.73265884 18.08694458 13.75033569 C13.44389027 13.65601611 13.44389027 13.65601611 9.76171875 16.12939453 C9.48280728 19.14203178 9.48280728 19.14203178 9.56640625 22.66845703 C9.57285156 23.97041016 9.57929687 25.27236328 9.5859375 26.61376953 C9.60264946 27.99398049 9.61957936 29.37418882 9.63671875 30.75439453 C9.64674869 32.14240905 9.65587452 33.53043042 9.6640625 34.91845703 C9.68770012 38.32227479 9.72065008 41.72574959 9.76171875 45.12939453 C13.56900812 46.33252963 17.3817535 46.33374518 21.3359375 46.41064453 C22.06037552 46.42905396 22.78481354 46.44746338 23.53120422 46.46643066 C26.62295098 46.54495651 29.71490238 46.61312201 32.80688477 46.68164062 C35.06668344 46.73322016 37.3262869 46.79049387 39.5859375 46.84814453 C40.64212532 46.86850769 40.64212532 46.86850769 41.71965027 46.88928223 C46.6488319 47.01650768 46.6488319 47.01650768 47.76171875 48.12939453 C47.83398377 49.98226955 47.84553095 51.83773331 47.82421875 53.69189453 C47.81519531 54.70380859 47.80617188 55.71572266 47.796875 56.75830078 C47.78527344 57.54076172 47.77367187 58.32322266 47.76171875 59.12939453 C44.5356833 60.74241226 41.01461837 60.24993052 37.47265625 60.22705078 C36.2450206 60.22492836 36.2450206 60.22492836 34.99258423 60.22276306 C32.3739255 60.21715743 29.75535171 60.20460401 27.13671875 60.19189453 C25.36328248 60.18688026 23.58984488 60.18231722 21.81640625 60.17822266 C17.46481093 60.16718617 13.11327925 60.14991778 8.76171875 60.12939453 C8.79201172 60.80929443 8.82230469 61.48919434 8.85351562 62.18969727 C8.99161878 65.31534352 9.12668795 68.4411141 9.26171875 71.56689453 C9.30941406 72.63617188 9.35710938 73.70544922 9.40625 74.80712891 C9.45136719 75.8609375 9.49648438 76.91474609 9.54296875 78.00048828 C9.58486328 78.95882568 9.62675781 79.91716309 9.66992188 80.90454102 C9.78587346 84.9779571 9.76171875 89.05432848 9.76171875 93.12939453 C23.62171875 93.45939453 37.48171875 93.78939453 51.76171875 94.12939453 C51.76171875 98.41939453 51.76171875 102.70939453 51.76171875 107.12939453 C32.62171875 107.12939453 13.48171875 107.12939453 -6.23828125 107.12939453 C-6.27839006 80.71551532 -6.27839006 80.71551532 -6.28710938 69.49853516 C-6.29309851 61.82998975 -6.30020067 54.16145623 -6.3137207 46.49291992 C-6.32454724 40.31380012 -6.33055759 34.13469305 -6.33315849 27.9555645 C-6.33501317 25.59233843 -6.33863457 23.22911309 -6.34401131 20.86589241 C-6.35121863 17.56837557 -6.35227232 14.27091206 -6.35180664 10.97338867 C-6.35540192 9.98580566 -6.35899719 8.99822266 -6.36270142 7.98071289 C-6.36132675 7.0874379 -6.35995209 6.1941629 -6.35853577 5.27381897 C-6.35945756 4.49306031 -6.36037935 3.71230165 -6.36132908 2.90788364 C-6.09462669 -0.94693681 -3.21388333 0.00258382 0 0 Z " fill="#1A4D31" transform="translate(837.23828125,60.87060546875)"/>
<path d="M0 0 C0.70079681 -0.00175232 1.40159363 -0.00350464 2.12362671 -0.00531006 C4.45093224 -0.00972813 6.77816239 -0.00679076 9.10546875 -0.00341797 C10.71590184 -0.00409102 12.32633484 -0.00506106 13.93676758 -0.00631714 C17.3162533 -0.00779405 20.69571265 -0.00563978 24.07519531 -0.00097656 C28.4167338 0.00472073 32.75821048 0.00144169 37.0997467 -0.00454903 C40.42647776 -0.00815482 43.75319405 -0.00701597 47.07992554 -0.00442123 C48.68118293 -0.00375202 50.28244165 -0.00458021 51.88369751 -0.00690079 C54.11781386 -0.00942762 56.35182875 -0.00558632 58.5859375 0 C60.49669067 0.00119339 60.49669067 0.00119339 62.44604492 0.00241089 C65.29296875 0.12939453 65.29296875 0.12939453 66.29296875 1.12939453 C66.39148046 2.96055336 66.42269504 4.79559386 66.41796875 6.62939453 C66.42183594 8.12986328 66.42183594 8.12986328 66.42578125 9.66064453 C66.29296875 12.12939453 66.29296875 12.12939453 65.29296875 13.12939453 C51.92796875 13.62439453 51.92796875 13.62439453 38.29296875 14.12939453 C37.96296875 44.81939453 37.63296875 75.50939453 37.29296875 107.12939453 C32.01296875 107.12939453 26.73296875 107.12939453 21.29296875 107.12939453 C21.29296875 76.10939453 21.29296875 45.08939453 21.29296875 13.12939453 C16.83796875 13.62439453 16.83796875 13.62439453 12.29296875 14.12939453 C10.62621169 14.15218223 8.95737478 14.13484044 7.29296875 14.04345703 C6.46925781 13.99962891 5.64554688 13.95580078 4.796875 13.91064453 C3.97058594 13.85908203 3.14429688 13.80751953 2.29296875 13.75439453 C1.43574219 13.71056641 0.57851563 13.66673828 -0.3046875 13.62158203 C-6.57243304 13.26399275 -6.57243304 13.26399275 -7.70703125 12.12939453 C-7.80554296 10.2982357 -7.83675754 8.4631952 -7.83203125 6.62939453 C-7.83460938 5.62908203 -7.8371875 4.62876953 -7.83984375 3.59814453 C-7.5735614 -1.3515745 -4.25573384 0.00265798 0 0 Z " fill="#194D30" transform="translate(997.70703125,60.87060546875)"/>
<path d="M0 0 C1.11785889 -0.00315216 2.23571777 -0.00630432 3.38745117 -0.009552 C5.21240112 -0.00651566 5.21240112 -0.00651566 7.07421875 -0.00341797 C8.31341064 -0.00437469 9.55260254 -0.00533142 10.8293457 -0.00631714 C13.45560156 -0.00699921 16.08176508 -0.00564085 18.70800781 -0.00097656 C22.08100589 0.00472073 25.4539244 0.00144151 28.82691956 -0.00454903 C32.03435552 -0.00902317 35.24178175 -0.00589429 38.44921875 -0.00341797 C39.66585205 -0.0054422 40.88248535 -0.00746643 42.13598633 -0.009552 C43.81277466 -0.00482376 43.81277466 -0.00482376 45.5234375 0 C46.51303467 0.00079559 47.50263184 0.00159119 48.5222168 0.00241089 C50.76171875 0.12939453 50.76171875 0.12939453 51.76171875 1.12939453 C51.90526992 5.13160106 51.80388278 9.12381136 51.76171875 13.12939453 C45.49171875 13.12939453 39.22171875 13.12939453 32.76171875 13.12939453 C32.76171875 12.46939453 32.76171875 11.80939453 32.76171875 11.12939453 C38.70171875 11.12939453 44.64171875 11.12939453 50.76171875 11.12939453 C50.26671875 7.16939453 50.26671875 7.16939453 49.76171875 3.12939453 C31.61171875 2.79939453 13.46171875 2.46939453 -5.23828125 2.12939453 C-5.11859049 20.38729041 -5.11859049 20.38729041 -4.98046875 38.64501953 C-4.92007007 46.0873752 -4.86186813 53.52970412 -4.81640625 60.97216797 C-4.77963566 66.96983221 -4.73329845 72.96735204 -4.68021774 78.96489334 C-4.66162993 81.25748801 -4.64653835 83.55011369 -4.63493729 85.84275436 C-4.61814973 89.04440981 -4.58913318 92.24573133 -4.55712891 95.44726562 C-4.55496872 96.40320114 -4.55280853 97.35913666 -4.55058289 98.34403992 C-4.5394194 99.21344711 -4.52825592 100.08285431 -4.51675415 100.97860718 C-4.51122339 101.73632101 -4.50569263 102.49403484 -4.49999428 103.2747097 C-4.39315639 105.37543264 -4.39315639 105.37543264 -2.23828125 107.12939453 C-3.55828125 107.12939453 -4.87828125 107.12939453 -6.23828125 107.12939453 C-6.26161183 93.32598566 -6.27919479 79.52257983 -6.29009342 65.71915531 C-6.29532291 59.31040325 -6.30242175 52.90166439 -6.3137207 46.49291992 C-6.32454724 40.31380012 -6.33055759 34.13469305 -6.33315849 27.9555645 C-6.33501317 25.59233843 -6.33863457 23.22911309 -6.34401131 20.86589241 C-6.35121863 17.56837557 -6.35227232 14.27091206 -6.35180664 10.97338867 C-6.35540192 9.98580566 -6.35899719 8.99822266 -6.36270142 7.98071289 C-6.36132675 7.0874379 -6.35995209 6.1941629 -6.35853577 5.27381897 C-6.35945756 4.49306031 -6.36037935 3.71230165 -6.36132908 2.90788364 C-6.09462669 -0.94693681 -3.21388333 0.00258382 0 0 Z " fill="#274537" transform="translate(837.23828125,60.87060546875)"/>
<path d="M0 0 C1.27875 0.00257812 2.5575 0.00515625 3.875 0.0078125 C5.15375 0.00523438 6.4325 0.00265625 7.75 0 C10.875 0.1328125 10.875 0.1328125 11.875 1.1328125 C11.9692174 3.24962567 11.99242761 5.36962008 11.98852539 7.48852539 C11.98867142 8.15191422 11.98881744 8.81530304 11.9889679 9.49879456 C11.98826881 11.70105206 11.98047665 13.90322595 11.97265625 16.10546875 C11.97079206 17.62861586 11.96936816 19.15176357 11.96836853 20.6749115 C11.96454346 24.69118901 11.95471328 28.70743058 11.94366455 32.72369385 C11.93345019 36.81904616 11.92887086 40.91440426 11.92382812 45.00976562 C11.913091 53.05079778 11.89601472 61.09180067 11.875 69.1328125 C11.215 69.1328125 10.555 69.1328125 9.875 69.1328125 C9.875 47.0228125 9.875 24.9128125 9.875 2.1328125 C6.245 2.1328125 2.615 2.1328125 -1.125 2.1328125 C-2.07601121 4.98584612 -2.24189423 6.70673017 -2.22265625 9.66088867 C-2.21935303 10.57581589 -2.2160498 11.4907431 -2.21264648 12.43339539 C-2.20434814 13.42088272 -2.1960498 14.40837006 -2.1875 15.42578125 C-2.18371338 16.44577713 -2.17992676 17.46577301 -2.17602539 18.51667786 C-2.15968543 22.88234356 -2.13167813 27.24791585 -2.10449219 31.61352539 C-2.0863262 34.80093955 -2.07427779 37.98833808 -2.0625 41.17578125 C-2.05420166 42.15314743 -2.04590332 43.13051361 -2.03735352 44.13749695 C-2.01807061 49.5704864 -2.3207007 54.75801908 -3.125 60.1328125 C-3.455 60.1328125 -3.785 60.1328125 -4.125 60.1328125 C-4.14812821 52.45744623 -4.16591753 44.78208354 -4.17681217 37.10669041 C-4.18203995 33.54303828 -4.18913569 29.97940993 -4.20043945 26.41577148 C-4.21334176 22.32275153 -4.21822906 18.2297567 -4.22265625 14.13671875 C-4.22781754 12.85132706 -4.23297882 11.56593536 -4.23829651 10.24159241 C-4.23837204 9.06044357 -4.23844757 7.87929474 -4.23852539 6.66235352 C-4.240746 5.61644547 -4.24296661 4.57053741 -4.24525452 3.49293518 C-4.06117988 -0.11972525 -3.69899625 0.15720734 0 0 Z " fill="#284B36" transform="translate(798.125,60.8671875)"/>
<path d="M0 0 C0.70079681 -0.00175232 1.40159363 -0.00350464 2.12362671 -0.00531006 C4.45093224 -0.00972813 6.77816239 -0.00679076 9.10546875 -0.00341797 C10.71590184 -0.00409102 12.32633484 -0.00506106 13.93676758 -0.00631714 C17.3162533 -0.00779405 20.69571265 -0.00563978 24.07519531 -0.00097656 C28.4167338 0.00472073 32.75821048 0.00144169 37.0997467 -0.00454903 C40.42647776 -0.00815482 43.75319405 -0.00701597 47.07992554 -0.00442123 C48.68118293 -0.00375202 50.28244165 -0.00458021 51.88369751 -0.00690079 C54.11781386 -0.00942762 56.35182875 -0.00558632 58.5859375 0 C60.49669067 0.00119339 60.49669067 0.00119339 62.44604492 0.00241089 C65.29296875 0.12939453 65.29296875 0.12939453 66.29296875 1.12939453 C66.36523377 2.98226955 66.37678095 4.83773331 66.35546875 6.69189453 C66.34644531 7.70380859 66.33742188 8.71572266 66.328125 9.75830078 C66.31652344 10.54076172 66.30492187 11.32322266 66.29296875 12.12939453 C64.97296875 12.45939453 63.65296875 12.78939453 62.29296875 13.12939453 C62.95296875 12.79939453 63.61296875 12.46939453 64.29296875 12.12939453 C64.29296875 8.82939453 64.29296875 5.52939453 64.29296875 2.12939453 C41.19296875 2.12939453 18.09296875 2.12939453 -5.70703125 2.12939453 C-5.37703125 5.09939453 -5.04703125 8.06939453 -4.70703125 11.12939453 C0.57296875 11.45939453 5.85296875 11.78939453 11.29296875 12.12939453 C11.29296875 12.45939453 11.29296875 12.78939453 11.29296875 13.12939453 C8.31374282 13.1562344 5.3347558 13.1761549 2.35546875 13.19189453 C1.08026367 13.20446289 1.08026367 13.20446289 -0.22070312 13.21728516 C-1.02958984 13.22050781 -1.83847656 13.22373047 -2.671875 13.22705078 C-3.42073975 13.2322876 -4.16960449 13.23752441 -4.94116211 13.24291992 C-6.70703125 13.12939453 -6.70703125 13.12939453 -7.70703125 12.12939453 C-7.80554296 10.2982357 -7.83675754 8.4631952 -7.83203125 6.62939453 C-7.83460938 5.62908203 -7.8371875 4.62876953 -7.83984375 3.59814453 C-7.5735614 -1.3515745 -4.25573384 0.00265798 0 0 Z " fill="#274C3A" transform="translate(997.70703125,60.87060546875)"/>
<path d="M0 0 C0.66 0 1.32 0 2 0 C3.26812865 3.80438596 3.13127336 7.3642604 3.11352539 11.3269043 C3.11367142 12.17590302 3.11381744 13.02490173 3.1139679 13.89962769 C3.11327083 16.70785063 3.10548806 19.51600738 3.09765625 22.32421875 C3.09579134 24.27049219 3.09436778 26.21676609 3.09336853 28.16304016 C3.08954912 33.28733617 3.07972373 38.41160386 3.06866455 43.53588867 C3.05843806 48.76415626 3.05386825 53.99242842 3.04882812 59.22070312 C3.03810097 69.48048119 3.02103143 79.74023824 3 90 C4.65 90.33 6.3 90.66 8 91 C8 91.33 8 91.66 8 92 C5.36 92 2.72 92 0 92 C0 61.64 0 31.28 0 0 Z " fill="#294B38" transform="translate(1019,76)"/>
<path d="M0 0 C0.33 0 0.66 0 1 0 C1 30.36 1 60.72 1 92 C-1.31 92 -3.62 92 -6 92 C-5.35093185 91.67386719 -4.70186371 91.34773438 -4.03312683 91.01171875 C-1.48621966 88.49162958 -1.51015963 86.69495961 -1.44996643 83.20239258 C-1.45656784 82.41372803 -1.46316925 81.62506348 -1.4699707 80.8125 C-1.46123932 79.97807373 -1.45250793 79.14364746 -1.44351196 78.28393555 C-1.4190909 75.52240634 -1.42254978 72.76162364 -1.42578125 70 C-1.41334085 68.0833203 -1.39900795 66.16665203 -1.38285828 64.25 C-1.34476995 59.20082255 -1.32963445 54.15184138 -1.32006836 49.10253906 C-1.30035194 41.02007941 -1.24352487 32.93776998 -1.19130516 24.85546875 C-1.17593691 22.02863251 -1.16876306 19.2018707 -1.16316223 16.375 C-1.15614657 14.64583297 -1.14904569 12.91666628 -1.1418457 11.1875 C-1.14237442 10.39883545 -1.14290314 9.6101709 -1.14344788 8.79760742 C-1.12573376 5.60052021 -1.01854268 3.05562803 0 0 Z " fill="#2A4A33" transform="translate(1034,76)"/>
<path d="M0 0 C0.66 0.33 1.32 0.66 2 1 C2 28.72 2 56.44 2 85 C-3.94 85 -9.88 85 -16 85 C-16 84.67 -16 84.34 -16 84 C-11.05 83.67 -6.1 83.34 -1 83 C-0.67 55.61 -0.34 28.22 0 0 Z " fill="#254A38" transform="translate(568,83)"/>
<path d="M0 0 C0.33 0 0.66 0 1 0 C1.33 28.38 1.66 56.76 2 86 C1.01 86 0.02 86 -1 86 C-1.02312283 74.93465142 -1.04091478 63.86930855 -1.05181217 52.80394077 C-1.05704113 47.66640434 -1.06413901 42.52888437 -1.07543945 37.39135742 C-1.08626787 32.4376859 -1.09227674 27.48403026 -1.09487724 22.53034782 C-1.09673157 20.63602384 -1.10035234 18.74170076 -1.10573006 16.8473835 C-1.11293989 14.20365614 -1.11399097 11.55999529 -1.11352539 8.91625977 C-1.11712067 8.12504227 -1.12071594 7.33382477 -1.12442017 6.51863098 C-1.11405216 1.11405216 -1.11405216 1.11405216 0 0 Z " fill="#274C38" transform="translate(543,82)"/>
<path d="M0 0 C23.43 0 46.86 0 71 0 C71 7.26 71 14.52 71 22 C61.76 22 52.52 22 43 22 C43 21.34 43 20.68 43 20 C44.08269165 20.00785522 44.08269165 20.00785522 45.18725586 20.01586914 C48.43732849 20.03657358 51.68738728 20.04963918 54.9375 20.0625 C56.64196289 20.07506836 56.64196289 20.07506836 58.38085938 20.08789062 C59.46044922 20.09111328 60.54003906 20.09433594 61.65234375 20.09765625 C62.65257568 20.10289307 63.65280762 20.10812988 64.68334961 20.11352539 C66.96207228 20.26181095 66.96207228 20.26181095 68 19 C68 13.39 68 7.78 68 2 C34.34 1.505 34.34 1.505 0 1 C0 0.67 0 0.34 0 0 Z " fill="#2B4C3A" transform="translate(527,61)"/>
<path d="M0 0 C13.86 0 27.72 0 42 0 C42 4.29 42 8.58 42 13 C25.83 13 9.66 13 -7 13 C-7 12.67 -7 12.34 -7 12 C3.112904 11.01122196 13.10546397 10.90650197 23.25 11 C26.2135372 11.0265448 29.17701459 11.04647357 32.140625 11.0625 C34.08243652 11.07990234 34.08243652 11.07990234 36.06347656 11.09765625 C38.88930811 11.3384298 38.88930811 11.3384298 40 10 C40.33 7.36 40.66 4.72 41 2 C27.47 2 13.94 2 0 2 C0 1.34 0 0.68 0 0 Z " fill="#2A4C39" transform="translate(847,155)"/>
<path d="M0 0 C0.99 0.66 1.98 1.32 3 2 C5.64633823 2.20474107 8.1963809 2.30094479 10.84375 2.30859375 C12.41536842 2.33374601 13.98698291 2.35914415 15.55859375 2.38476562 C18.03400729 2.4135495 20.50935299 2.43757076 22.98486328 2.45629883 C25.37567654 2.47792117 27.76570668 2.51734766 30.15625 2.55859375 C30.89693726 2.55870956 31.63762451 2.55882538 32.40075684 2.5589447 C37.52306151 2.65784978 37.52306151 2.65784978 39.94458008 4.39501953 C41.25643004 6.38995398 41.7257636 8.09724628 42.1875 10.4375 C42.42533203 11.58025391 42.42533203 11.58025391 42.66796875 12.74609375 C43 15 43 15 43 19 C43.66 19.33 44.32 19.66 45 20 C44.01 20 43.02 20 42 20 C41.3299166 17.87607494 40.66403203 15.75082476 40 13.625 C39.62875 12.44164062 39.2575 11.25828125 38.875 10.0390625 C38 7 38 7 38 5 C25.13 5 12.26 5 -1 5 C-1.33 6.65 -1.66 8.3 -2 10 C-2.33 10 -2.66 10 -3 10 C-2.88637738 8.5199159 -2.75877092 7.04089926 -2.625 5.5625 C-2.55539062 4.73878906 -2.48578125 3.91507813 -2.4140625 3.06640625 C-2.27742188 2.38449219 -2.14078125 1.70257813 -2 1 C-1.34 0.67 -0.68 0.34 0 0 Z " fill="#244A37" transform="translate(339,145)"/>
<path d="M0 0 C7.79636973 -0.04583104 15.59227492 -0.08568091 23.38867188 -0.10986328 C26.04265931 -0.11994089 28.6966356 -0.13360313 31.35058594 -0.15087891 C35.15823107 -0.17504992 38.96572984 -0.18646535 42.7734375 -0.1953125 C44.56254044 -0.21079636 44.56254044 -0.21079636 46.38778687 -0.22659302 C47.48877716 -0.22674408 48.58976746 -0.22689514 49.72412109 -0.22705078 C51.1830629 -0.23371262 51.1830629 -0.23371262 52.67147827 -0.24050903 C55 0 55 0 57 2 C54 3 54 3 51.90405273 2.56640625 C47.77239186 1.76056739 43.73377525 1.8976387 39.53515625 1.9375 C38.62422714 1.94128662 37.71329803 1.94507324 36.77476501 1.94897461 C32.89055839 1.96527323 29.00645837 1.99341588 25.12231445 2.02050781 C22.2807667 2.03862962 19.43923617 2.05070029 16.59765625 2.0625 C15.7256105 2.07079834 14.85356476 2.07909668 13.95509338 2.08764648 C9.51468299 2.105441 5.37201392 1.90366517 1 1 C1.17402344 2.28648438 1.34804688 3.57296875 1.52734375 4.8984375 C2.31770798 12.80207982 1.8520693 20.70350582 1.5625 28.625 C1.50915967 30.21742773 1.45642055 31.80987573 1.40429688 33.40234375 C1.27645936 37.26849754 1.1404961 41.13428638 1 45 C0.67 45 0.34 45 0 45 C0 30.15 0 15.3 0 0 Z " fill="#2C4D3B" transform="translate(422,61)"/>
<path d="M0 0 C15 19.42477876 15 19.42477876 15 27 C9.06 27 3.12 27 -3 27 C-3 26.67 -3 26.34 -3 26 C1.95 26 6.9 26 12 26 C9.44464865 21.28295823 9.44464865 21.28295823 7 19 C7.33 18.01 7.66 17.02 8 16 C7.01 15.67 6.02 15.34 5 15 C4.29373761 13.01363702 3.63106429 11.01151741 3 9 C2.46375 8.319375 1.9275 7.63875 1.375 6.9375 C-0.36073958 4.49168514 -0.24444395 2.93332739 0 0 Z " fill="#264735" transform="translate(491,141)"/>
<path d="M0 0 C9.57 0 19.14 0 29 0 C29.66 2.31 30.32 4.62 31 7 C30.01 6.67 29.02 6.34 28 6 C28 4.68 28 3.36 28 2 C24.20771856 2.10952116 20.4164616 2.24023241 16.625 2.375 C15.54476562 2.4059375 14.46453125 2.436875 13.3515625 2.46875 C12.3203125 2.50742188 11.2890625 2.54609375 10.2265625 2.5859375 C8.79691162 2.63306885 8.79691162 2.63306885 7.33837891 2.68115234 C4.81104824 2.78555796 4.81104824 2.78555796 3 5 C2.01 5 1.02 5 0 5 C0 3.35 0 1.7 0 0 Z " fill="#274A37" transform="translate(76,135)"/>
<path d="M0 0 C1.17433594 0.01417969 2.34867188 0.02835938 3.55859375 0.04296875 C5.32396484 0.05263672 5.32396484 0.05263672 7.125 0.0625 C9.99609375 0.23046875 9.99609375 0.23046875 10.99609375 1.23046875 C11.08453168 3.67877301 11.11138127 6.09867474 11.09375 8.546875 C11.09233505 9.27792953 11.0909201 10.00898407 11.08946228 10.76219177 C11.08384783 13.10582507 11.07129297 15.44936414 11.05859375 17.79296875 C11.05358061 19.37825383 11.04901738 20.96354041 11.04492188 22.54882812 C11.03387372 26.44274485 11.01659947 30.3365908 10.99609375 34.23046875 C10.66609375 34.23046875 10.33609375 34.23046875 9.99609375 34.23046875 C9.66609375 23.67046875 9.33609375 13.11046875 8.99609375 2.23046875 C4.23047134 2.23046875 0.54240499 2.34338363 -4.00390625 3.23046875 C-4.00390625 7.19046875 -4.00390625 11.15046875 -4.00390625 15.23046875 C-4.33390625 15.23046875 -4.66390625 15.23046875 -5.00390625 15.23046875 C-5.05777254 13.10574299 -5.09663696 10.98063223 -5.12890625 8.85546875 C-5.15210938 7.67210938 -5.1753125 6.48875 -5.19921875 5.26953125 C-4.93137478 1.10187905 -4.16385831 0.31946377 0 0 Z " fill="#294736" transform="translate(733.00390625,60.76953125)"/>
<path d="M0 0 C0.33 0 0.66 0 1 0 C1.33 5.61 1.66 11.22 2 17 C10.25 17.33 18.5 17.66 27 18 C27 18.66 27 19.32 27 20 C18.09 20 9.18 20 0 20 C0 13.4 0 6.8 0 0 Z " fill="#2A4C3A" transform="translate(515,63)"/>
<path d="M0 0 C0.33 0 0.66 0 1 0 C1 8.25 1 16.5 1 25 C-5.6 25 -12.2 25 -19 25 C-19 24.67 -19 24.34 -19 24 C-10.585 23.505 -10.585 23.505 -2 23 C-1.93941406 21.42347656 -1.87882812 19.84695312 -1.81640625 18.22265625 C-1.73202013 16.16926057 -1.64737117 14.11587569 -1.5625 12.0625 C-1.52318359 11.02158203 -1.48386719 9.98066406 -1.44335938 8.90820312 C-1.40146484 7.91884766 -1.35957031 6.92949219 -1.31640625 5.91015625 C-1.27974854 4.99371338 -1.24309082 4.07727051 -1.20532227 3.13305664 C-1 1 -1 1 0 0 Z " fill="#264835" transform="translate(448,143)"/>
<path d="M0 0 C6.55587846 1.01391442 11.69719112 4.19903247 15.9140625 9.328125 C20 15.33116114 20 15.33116114 20 18 C19.34 18 18.68 18 18 18 C16.37761317 15.76300423 14.9771559 13.42302461 13.53515625 11.06640625 C12.09271887 8.71260243 12.09271887 8.71260243 9 8 C9 7.34 9 6.68 9 6 C7.02 5.34 5.04 4.68 3 4 C3 3.34 3 2.68 3 2 C2.01 1.67 1.02 1.34 0 1 C0 0.67 0 0.34 0 0 Z " fill="#254A37" transform="translate(134,63)"/>
<path d="M0 0 C0.33 0 0.66 0 1 0 C1.08226668 3.04386724 0.97608217 5.07175348 0 8 C0.33 8.99 0.66 9.98 1 11 C0.2884375 11.495 0.2884375 11.495 -0.4375 12 C-2.85791615 15.09813267 -2.68198917 18.12026792 -3 22 C-2.01 22.33 -1.02 22.66 0 23 C0.6875 25.0625 0.6875 25.0625 1 27 C0.01 27.66 -0.98 28.32 -2 29 C-5.09072276 20.85285481 -5.60560603 11.69286313 -2 3.625 C-1.35981733 2.40242892 -0.70354833 1.18723782 0 0 Z " fill="#244835" transform="translate(910,74)"/>
<path d="M0 0 C0.99 0.33 1.98 0.66 3 1 C3.71706982 2.98248715 4.38290413 4.98415349 5 7 C5.66 7.66 6.32 8.32 7 9 C7 9.66 7 10.32 7 11 C7.89959434 13.44175607 8.84846831 15.73061033 10.125 18 C11.19376273 20.44288623 11.1465693 22.36175261 11 25 C10.34 25 9.68 25 9 25 C8.80365967 24.39937744 8.60731934 23.79875488 8.4050293 23.17993164 C7.51148289 20.4698839 6.59977886 17.76629631 5.6875 15.0625 C5.2244043 13.64420898 5.2244043 13.64420898 4.75195312 12.19726562 C4.44580078 11.29814453 4.13964844 10.39902344 3.82421875 9.47265625 C3.40789185 8.22367554 3.40789185 8.22367554 2.9831543 6.94946289 C2.10788981 4.64448399 2.10788981 4.64448399 -1 4 C-1.33 4.66 -1.66 5.32 -2 6 C-2 3 -2 3 0 0 Z " fill="#264D35" transform="translate(356,91)"/>
<path d="M0 0 C0.99 0 1.98 0 3 0 C4.00981089 2.72588833 5.00803308 5.45512264 6 8.1875 C6.28617187 8.95642578 6.57234375 9.72535156 6.8671875 10.51757812 C8.28784938 14.45822357 9.40963365 17.74151681 9 22 C7 20 7 20 6.875 17.375 C6.91625 16.59125 6.9575 15.8075 7 15 C6.360625 14.855625 5.72125 14.71125 5.0625 14.5625 C3 14 3 14 2 13 C1.60333773 10.81980521 1.25684763 8.6303537 0.9375 6.4375 C0.76089844 5.23996094 0.58429688 4.04242188 0.40234375 2.80859375 C0.26957031 1.88175781 0.13679688 0.95492187 0 0 Z " fill="#224935" transform="translate(377,78)"/>
<path d="M0 0 C2.94733835 2.43336109 3.4968254 4.33344126 4.0625 8.0625 C4.57922919 11.98227684 4.57922919 11.98227684 7 15 C7 16.32 7 17.64 7 19 C7.928125 19.0928125 7.928125 19.0928125 8.875 19.1875 C11 20 11 20 12.25 22.5625 C12.4975 23.366875 12.745 24.17125 13 25 C7.65159437 22.89884064 5.22385577 18.73811139 2.8125 13.75 C0.84287543 9.15420933 0.31565359 4.97154402 0 0 Z " fill="#234733" transform="translate(729,134)"/>
<path d="M0 0 C5.1531427 -0.37705922 8.31261901 0.97957716 13 3 C14.41265959 3.16420213 15.83041978 3.2892012 17.25 3.375 C21 4 21 4 23 6.5625 C23.33 7.366875 23.66 8.17125 24 9 C15.72943539 6.96136383 7.89885589 4.17712327 0 1 C0 0.67 0 0.34 0 0 Z " fill="#284836" transform="translate(97,119)"/>
<path d="M0 0 C0.33 0.66 0.66 1.32 1 2 C-1.46772448 5.70158672 -2.75128232 5.95408481 -7 7 C-10.47265625 7.16015625 -10.47265625 7.16015625 -14.0625 7.0625 C-18.2323304 6.95836743 -21.93881221 7.00965364 -26 8 C-25.67 7.01 -25.34 6.02 -25 5 C-23.69804687 4.97421875 -22.39609375 4.9484375 -21.0546875 4.921875 C-19.32809244 4.86557299 -17.60153124 4.80822613 -15.875 4.75 C-15.0190625 4.73582031 -14.163125 4.72164063 -13.28125 4.70703125 C-7.60052378 4.48854178 -4.41885794 3.62201471 0 0 Z " fill="#2C4E3A" transform="translate(476,103)"/>
<path d="M0 0 C7.59 0.33 15.18 0.66 23 1 C23 1.66 23 2.32 23 3 C15.08 3 7.16 3 -1 3 C-0.67 2.01 -0.34 1.02 0 0 Z " fill="#285038" transform="translate(345,127)"/>
<path d="M0 0 C0.763125 0.309375 1.52625 0.61875 2.3125 0.9375 C8.40429597 3.34588445 13.61017293 3.54904899 20 2 C18.26941029 4.13477349 17.37071092 4.93110142 14.625 5.44140625 C13.75875 5.48136719 12.8925 5.52132812 12 5.5625 C8.31096349 5.74365804 7.18809914 5.87460058 4 8 C1.3125 7.625 1.3125 7.625 -1 7 C-0.01 6.01 0.98 5.02 2 4 C1.34 2.68 0.68 1.36 0 0 Z " fill="#264D37" transform="translate(106,143)"/>
<path d="M0 0 C3.84619141 1.70996094 3.84619141 1.70996094 5.23046875 4.3203125 C7.14377904 9.92748307 8.55353522 15.0843416 9 21 C6.84262085 18.84262085 6.293608 17.48224443 5.2734375 14.6484375 C4.809375 13.37226563 4.809375 13.37226563 4.3359375 12.0703125 C4.01882812 11.18085938 3.70171875 10.29140625 3.375 9.375 C3.05015625 8.4778125 2.7253125 7.580625 2.390625 6.65625 C1.58873292 4.43925426 0.79209046 2.2205126 0 0 Z " fill="#264836" transform="translate(207,130)"/>
<path d="M0 0 C1.38228901 3.14156592 0.91178547 4.23943945 -0.3125 7.5625 C-2 11 -2 11 -4 14 C-4.44429438 16.04869074 -4.81294195 18.11454293 -5.125 20.1875 C-5.29257812 21.27417969 -5.46015625 22.36085938 -5.6328125 23.48046875 C-5.75398437 24.31191406 -5.87515625 25.14335938 -6 26 C-6.33 26 -6.66 26 -7 26 C-7.477673 16.12809141 -5.26202897 8.34666664 0 0 Z " fill="#274736" transform="translate(614,86)"/>
<path d="M0 0 C2 2 2 2 2 5 C-6.91 5 -15.82 5 -25 5 C-20.66766568 2.11177712 -16.35577847 2.93900916 -11.3359375 3.16601562 C-6.6592791 3.28456728 -3.87094375 2.95332959 0 0 Z " fill="#244B36" transform="translate(197,163)"/>
<path d="M0 0 C0.99 0 1.98 0 3 0 C2.979375 0.78375 2.95875 1.5675 2.9375 2.375 C2.81315937 4.98114961 2.81315937 4.98114961 4 7 C-0.75 11.875 -0.75 11.875 -3 13 C-2.88490339 11.58249437 -2.75746342 10.16598831 -2.625 8.75 C-2.55539062 7.96109375 -2.48578125 7.1721875 -2.4140625 6.359375 C-1.98492887 3.914123 -1.21399362 2.15163097 0 0 Z " fill="#224A36" transform="translate(315,135)"/>
<path d="M0 0 C2.21637574 3.32456361 3.68814818 6.75791424 5.1875 10.4375 C5.47302734 11.10587891 5.75855469 11.77425781 6.05273438 12.46289062 C8.075048 17.42764597 8.075048 17.42764597 7.67578125 20.47265625 C7.34126953 21.22869141 7.34126953 21.22869141 7 22 C5.5 20.9375 5.5 20.9375 4 19 C3.8125 15.3125 3.8125 15.3125 4 12 C3.34 11.67 2.68 11.34 2 11 C0.06669424 7.24079436 -0.19491883 4.19075475 0 0 Z " fill="#244634" transform="translate(214,87)"/>
<path d="M0 0 C0.99 0 1.98 0 3 0 C3.33 0.66 3.66 1.32 4 2 C8.95 2 13.9 2 19 2 C19 2.66 19 3.32 19 4 C16.04412889 5.47793555 13.35002355 5.17053651 10.0625 5.1875 C8.81597656 5.20167969 7.56945312 5.21585937 6.28515625 5.23046875 C3 5 3 5 0 3 C0 2.01 0 1.02 0 0 Z " fill="#1A3225" transform="translate(690,89)"/>
<path d="M0 0 C4.02512852 3.33114085 5.66129814 7.06100148 7 12 C7 12.99 7 13.98 7 15 C6.34 15 5.68 15 5 15 C5 14.34 5 13.68 5 13 C4.34 13 3.68 13 3 13 C2.49487756 11.39743892 1.99608373 9.79288208 1.5 8.1875 C1.2215625 7.29417969 0.943125 6.40085937 0.65625 5.48046875 C0 3 0 3 0 0 Z " fill="#234836" transform="translate(393,121)"/>
<path d="M0 0 C3.31248187 -0.02888146 6.62493167 -0.04675799 9.9375 -0.0625 C10.88302734 -0.07087891 11.82855469 -0.07925781 12.80273438 -0.08789062 C14.15141602 -0.09272461 14.15141602 -0.09272461 15.52734375 -0.09765625 C16.77632446 -0.10551147 16.77632446 -0.10551147 18.05053711 -0.11352539 C20 0 20 0 21 1 C21.07205511 2.68608966 21.08386068 4.37500659 21.0625 6.0625 C21.05347656 6.98160156 21.04445313 7.90070313 21.03515625 8.84765625 C21.02355469 9.55792969 21.01195312 10.26820312 21 11 C19 8 19 8 17 2 C11.39 1.67 5.78 1.34 0 1 C0 0.67 0 0.34 0 0 Z " fill="#294936" transform="translate(864,108)"/>
<path d="M0 0 C0.33 0.99 0.66 1.98 1 3 C-7.58 3 -16.16 3 -25 3 C-20.50384615 0.75192308 -20.50384615 0.75192308 -16.9609375 0.83984375 C-15.84332031 0.8562793 -15.84332031 0.8562793 -14.703125 0.87304688 C-13.93484375 0.89431641 -13.1665625 0.91558594 -12.375 0.9375 C-8.06564427 1.03413838 -4.03746379 0 0 0 Z " fill="#254834" transform="translate(411,165)"/>
<path d="M0 0 C2 1 2 1 5 3 C6.93137682 3.27356843 6.93137682 3.27356843 9.01171875 3.1953125 C9.76904297 3.18886719 10.52636719 3.18242187 11.30664062 3.17578125 C12.09232422 3.15902344 12.87800781 3.14226562 13.6875 3.125 C14.88342773 3.11146484 14.88342773 3.11146484 16.10351562 3.09765625 C18.069139 3.07411585 20.03460775 3.03824547 22 3 C22.33 2.34 22.66 1.68 23 1 C23.66 1 24.32 1 25 1 C24.67 2.32 24.34 3.64 24 5 C16.41 5 8.82 5 1 5 C0.67 3.35 0.34 1.7 0 0 Z " fill="#274835" transform="translate(220,163)"/>
<path d="M0 0 C0 0.33 0 0.66 0 1 C-2.31 1.33 -4.62 1.66 -7 2 C-7.33 2.99 -7.66 3.98 -8 5 C-8.86625 5.185625 -8.86625 5.185625 -9.75 5.375 C-13.06910681 6.29697411 -14.70889648 8.51797119 -17 11 C-17.66 10.67 -18.32 10.34 -19 10 C-16.1005486 5.90583489 -13.43374499 3.82019272 -8.9375 1.625 C-7.89464844 1.10164063 -6.85179687 0.57828125 -5.77734375 0.0390625 C-3 -1 -3 -1 0 0 Z " fill="#244333" transform="translate(930,63)"/>
<path d="M0 0 C1.05703125 0.07863281 2.1140625 0.15726563 3.203125 0.23828125 C4.46382812 0.46064453 4.46382812 0.46064453 5.75 0.6875 C6.08 1.3475 6.41 2.0075 6.75 2.6875 C0.48 2.6875 -5.79 2.6875 -12.25 2.6875 C-11.92 2.0275 -11.59 1.3675 -11.25 0.6875 C-7.41991901 -0.44912475 -3.9541561 -0.32626657 0 0 Z " fill="#284837" transform="translate(120.25,166.3125)"/>
<path d="M0 0 C4.3725846 -0.42868476 6.31080881 -0.55135295 9.8125 2.25 C12.39127151 5.49188419 13.70049853 8.1014956 15 12 C14.01 13.485 14.01 13.485 13 15 C12.84144531 14.38511719 12.68289063 13.77023438 12.51953125 13.13671875 C11.10388671 7.9636806 11.10388671 7.9636806 7.625 4.0625 C6.75875 3.711875 5.8925 3.36125 5 3 C3.6078125 2.4121875 3.6078125 2.4121875 2.1875 1.8125 C1.465625 1.544375 0.74375 1.27625 0 1 C0 0.67 0 0.34 0 0 Z " fill="#2B4C39" transform="translate(465,82)"/>
<path d="M0 0 C-0.50797009 4.3177458 -1.19682779 8.03302114 -3 12 C-3.66 12 -4.32 12 -5 12 C-6.39864092 8.82127065 -5.89282517 7.69888978 -4.6875 4.3125 C-2.49056604 0 -2.49056604 0 0 0 Z " fill="#204431" transform="translate(255,136)"/>
<path d="M0 0 C9.57 0 19.14 0 29 0 C29 0.33 29 0.66 29 1 C28.25838623 1.02505615 27.51677246 1.0501123 26.75268555 1.07592773 C23.39744672 1.19186132 20.04249056 1.31459985 16.6875 1.4375 C14.93663086 1.49647461 14.93663086 1.49647461 13.15039062 1.55664062 C12.03212891 1.59853516 10.91386719 1.64042969 9.76171875 1.68359375 C8.2142395 1.73858032 8.2142395 1.73858032 6.63549805 1.79467773 C3.89251742 1.90161242 3.89251742 1.90161242 1 3 C0.67 2.01 0.34 1.02 0 0 Z " fill="#2A4D3A" transform="translate(262,61)"/>
<path d="M0 0 C4.53344716 2.20196005 7.91366929 5.3802677 10 10 C9.6328125 12.22265625 9.6328125 12.22265625 9 14 C8.67128906 13.16855469 8.67128906 13.16855469 8.3359375 12.3203125 C6.2212507 7.35136465 6.2212507 7.35136465 1.75 4.5 C0.8425 4.335 -0.065 4.17 -1 4 C-0.67 2.68 -0.34 1.36 0 0 Z " fill="#234632" transform="translate(146,114)"/>
<path d="M0 0 C0.66 0.33 1.32 0.66 2 1 C-1.06093224 4.93548431 -3.49115974 7.68116787 -8 10 C-8.3125 7.6875 -8.3125 7.6875 -8 5 C-5.6875 3.3125 -5.6875 3.3125 -3 2 C-2.01 1.34 -1.02 0.68 0 0 Z " fill="#244935" transform="translate(499,112)"/>
<path d="M0 0 C3 0 3 0 5.5625 2.5 C6.7690625 3.7375 6.7690625 3.7375 8 5 C8.66 5 9.32 5 10 5 C10 5.99 10 6.98 10 8 C11.65 8.33 13.3 8.66 15 9 C15 9.66 15 10.32 15 11 C9.02982203 9.65670996 5.203452 6.25361253 1 2 C0.67 1.34 0.34 0.68 0 0 Z " fill="#294939" transform="translate(81,108)"/>
<path d="M0 0 C0.99 0.33 1.98 0.66 3 1 C3.144375 1.9075 3.28875 2.815 3.4375 3.75 C3.92181116 6.82958065 3.92181116 6.82958065 4.5625 9.125 C5 11 5 11 5 15 C5.66 15.33 6.32 15.66 7 16 C6.01 16 5.02 16 4 16 C3.32815382 13.89748139 2.66269032 11.79292237 2 9.6875 C1.443125 7.92986328 1.443125 7.92986328 0.875 6.13671875 C0 3 0 3 0 0 Z " fill="#284936" transform="translate(377,149)"/>
<path d="M0 0 C6.6 0 13.2 0 20 0 C20 0.33 20 0.66 20 1 C18.86820313 1.04898438 17.73640625 1.09796875 16.5703125 1.1484375 C15.08851661 1.22346514 13.606747 1.29901297 12.125 1.375 C11.37863281 1.4059375 10.63226563 1.436875 9.86328125 1.46875 C5.46526812 1.55643831 5.46526812 1.55643831 2 4 C1.01 4.495 1.01 4.495 0 5 C0 3.35 0 1.7 0 0 Z " fill="#304D3E" transform="translate(76,135)"/>
<path d="M0 0 C0.33 0 0.66 0 1 0 C1 4.95 1 9.9 1 15 C-1 12 -1 12 -1 9 C-1.99 9.33 -2.98 9.66 -4 10 C-4 9.01 -4 8.02 -4 7 C-2.68 6.34 -1.36 5.68 0 5 C0 3.35 0 1.7 0 0 Z " fill="#153022" transform="translate(846,139)"/>
<path d="M0 0 C0.33 0 0.66 0 1 0 C1 1.98 1 3.96 1 6 C-3.62 6 -8.24 6 -13 6 C-13 5.67 -13 5.34 -13 5 C-12.31292969 4.97421875 -11.62585938 4.9484375 -10.91796875 4.921875 C-10.01691406 4.86515625 -9.11585938 4.8084375 -8.1875 4.75 C-7.29417969 4.70359375 -6.40085937 4.6571875 -5.48046875 4.609375 C-2.36313564 3.84354198 -1.67871312 2.64781249 0 0 Z " fill="#2E493A" transform="translate(976,83)"/>
<path d="M0 0 C0.99 0.33 1.98 0.66 3 1 C3 1.66 3 2.32 3 3 C-0.85756507 5.15305957 -3.55129785 6.39253254 -8 6 C-7.67 5.01 -7.34 4.02 -7 3 C-6.21625 3.061875 -5.4325 3.12375 -4.625 3.1875 C-3.75875 3.125625 -2.8925 3.06375 -2 3 C-1.34 2.01 -0.68 1.02 0 0 Z " fill="#234531" transform="translate(137,162)"/>
<path d="M0 0 C3.37339774 1.12446591 4.60069275 2.44589873 7 5 C7.66 5.66 8.32 6.32 9 7 C4.78087253 6.5205537 2.20336822 5.83374881 -1 3 C-0.67 2.01 -0.34 1.02 0 0 Z " fill="#234634" transform="translate(914,107)"/>
<path d="M0 0 C2.95409701 1.37154504 5.44008376 2.98863724 8 5 C7.67 5.66 7.34 6.32 7 7 C5.35 6.67 3.7 6.34 2 6 C1.34 4.02 0.68 2.04 0 0 Z " fill="#224734" transform="translate(923,98)"/>
<path d="M0 0 C4.3890815 0.51035831 7.33708062 1.52214277 11 4 C10.67 4.66 10.34 5.32 10 6 C5 4 5 4 0 2 C0 1.34 0 0.68 0 0 Z " fill="#284A36" transform="translate(480,63)"/>
<path d="M0 0 C3.63 0 7.26 0 11 0 C11 0.99 11 1.98 11 3 C7.37 2.67 3.74 2.34 0 2 C0 1.34 0 0.68 0 0 Z " fill="#2F4837" transform="translate(110,59)"/>
<path d="M0 0 C0.66 0 1.32 0 2 0 C1.01 2.97 0.02 5.94 -1 9 C-1.99 8.01 -2.98 7.02 -4 6 C-2.7260411 3.96166576 -1.38938077 1.96147874 0 0 Z " fill="#234231" transform="translate(249,149)"/>
<path d="M0 0 C3.3 1.98 6.6 3.96 10 6 C8.02 6.99 8.02 6.99 6 8 C5.67 7.01 5.34 6.02 5 5 C3.68 5 2.36 5 1 5 C0.67 3.35 0.34 1.7 0 0 Z " fill="#284737" transform="translate(635,146)"/>
<path d="M0 0 C3 1.75 3 1.75 6 4 C6 5.32 6 6.64 6 8 C5.01 8 4.02 8 3 8 C0 2.25 0 2.25 0 0 Z " fill="#244A35" transform="translate(463,143)"/>
<path d="M0 0 C4.43458973 1.3937282 6.87378374 3.60582235 10 7 C5.1746274 6.58639663 3.13078071 4.5780351 0 1 C0 0.67 0 0.34 0 0 Z " fill="#274A38" transform="translate(688,68)"/>
<path d="M0 0 C0.66 0 1.32 0 2 0 C5 3.46153846 5 3.46153846 5 6 C5.66 6.33 6.32 6.66 7 7 C7 7.66 7 8.32 7 9 C6.01 9 5.02 9 4 9 C0 2.25 0 2.25 0 0 Z " fill="#224838" transform="translate(454,128)"/>
<path d="M0 0 C0.66 0.66 1.32 1.32 2 2 C-0.97 3.32 -3.94 4.64 -7 6 C-7 5.01 -7 4.02 -7 3 C-4.69 2.01 -2.38 1.02 0 0 Z " fill="#284536" transform="translate(684,161)"/>
<path d="M0 0 C0.99 0 1.98 0 3 0 C3.66 2.64 4.32 5.28 5 8 C3.0625 7.375 3.0625 7.375 1 6 C0.25 2.875 0.25 2.875 0 0 Z " fill="#254836" transform="translate(227,124)"/>
<path d="M0 0 C2.31 0.66 4.62 1.32 7 2 C4.77810176 4.22189824 2.91517292 4.92598892 0 6 C-0.38218767 4.34385343 -0.71395102 2.67542976 -1 1 C-0.67 0.67 -0.34 0.34 0 0 Z " fill="#1E402E" transform="translate(482,121)"/>
<path d="M0 0 C1.32 0 2.64 0 4 0 C4 3.96 4 7.92 4 12 C3.67 12 3.34 12 3 12 C2.86722656 11.30132812 2.73445312 10.60265625 2.59765625 9.8828125 C2.42105469 8.97273438 2.24445312 8.06265625 2.0625 7.125 C1.88847656 6.22007813 1.71445312 5.31515625 1.53515625 4.3828125 C1.10036299 2.00043683 1.10036299 2.00043683 0 0 Z " fill="#284937" transform="translate(708,110)"/>
<path d="M0 0 C2.6855594 2.6855594 3.06049974 5.37621328 4 9 C2.68 8.67 1.36 8.34 0 8 C-0.98120464 4.94736336 -0.98120464 3.05263664 0 0 Z " fill="#1F4030" transform="translate(388,103)"/>
<path d="M0 0 C2.97 0.33 5.94 0.66 9 1 C9 1.33 9 1.66 9 2 C7.58622218 2.36552803 6.16879424 2.71695495 4.75 3.0625 C3.96109375 3.25972656 3.1721875 3.45695312 2.359375 3.66015625 C-0.10394822 4.01497267 -1.65604132 3.76877544 -4 3 C-2.68 2.67 -1.36 2.34 0 2 C0 1.34 0 0.68 0 0 Z " fill="#294C38" transform="translate(647,73)"/>
<path d="M0 0 C2.05078125 0.03255208 4.1015625 0.06510417 6.15234375 0.09765625 C3.15234375 2.09765625 3.15234375 2.09765625 0.15234375 2.09765625 C-0.50765625 3.74765625 -1.16765625 5.39765625 -1.84765625 7.09765625 C-2.17765625 7.09765625 -2.50765625 7.09765625 -2.84765625 7.09765625 C-2.89019981 5.09810879 -2.88846408 3.09723989 -2.84765625 1.09765625 C-1.84765625 0.09765625 -1.84765625 0.09765625 0 0 Z " fill="#274D38" transform="translate(343.84765625,60.90234375)"/>
<path d="M0 0 C0.66 0 1.32 0 2 0 C2 0.66 2 1.32 2 2 C3.65 1.34 5.3 0.68 7 0 C5.02 2.31 3.04 4.62 1 7 C0 3 0 3 0 0 Z " fill="#224632" transform="translate(144,155)"/>
<path d="M0 0 C0.33 0.66 0.66 1.32 1 2 C-1.82553984 6.23830976 -4.12180888 5.97715348 -9 7 C-9 6.34 -9 5.68 -9 5 C-8.43410156 4.72285156 -7.86820312 4.44570312 -7.28515625 4.16015625 C-6.55167969 3.79792969 -5.81820313 3.43570313 -5.0625 3.0625 C-3.96615234 2.52302734 -3.96615234 2.52302734 -2.84765625 1.97265625 C-1.03750973 1.13628173 -1.03750973 1.13628173 0 0 Z " fill="#274532" transform="translate(476,103)"/>
<path d="M0 0 C2.35448165 2.55068845 2.98327924 3.71017358 3.1875 7.25 C3.125625 8.1575 3.06375 9.065 3 10 C1.24901874 7.37352812 -0.38731308 4.71224618 -2 2 C-1.34 1.34 -0.68 0.68 0 0 Z " fill="#244936" transform="translate(958,77)"/>
<path d="M0 0 C0.33 0 0.66 0 1 0 C1.20086443 3.71599191 1.1519437 4.77208445 -1 8 C-1.99 8 -2.98 8 -4 8 C-2.87548273 5.0280615 -1.77706209 2.66559313 0 0 Z " fill="#2A4936" transform="translate(793,140)"/>
<path d="M0 0 C4.455 0.99 4.455 0.99 9 2 C8.67 2.99 8.34 3.98 8 5 C5.03 4.01 2.06 3.02 -1 2 C-0.67 1.34 -0.34 0.68 0 0 Z " fill="#2A4C3B" transform="translate(944,120)"/>
<path d="M0 0 C0.66 0.33 1.32 0.66 2 1 C2 4.3 2 7.6 2 11 C-0.14208427 7.7868736 -0.59687808 5.78934603 -1 2 C-0.67 1.34 -0.34 0.68 0 0 Z " fill="#3A4B42" transform="translate(883,108)"/>
<path d="M0 0 C1.65 0.33 3.3 0.66 5 1 C5 1.99 5 2.98 5 4 C2.69 3.67 0.38 3.34 -2 3 C-1.34 2.01 -0.68 1.02 0 0 Z " fill="#254B36" transform="translate(932,154)"/>
<path d="M0 0 C3.375 -0.125 3.375 -0.125 7 0 C7.66 0.66 8.32 1.32 9 2 C6.36 2.33 3.72 2.66 1 3 C0.67 2.01 0.34 1.02 0 0 Z " fill="#2C4C38" transform="translate(761,155)"/>
<path d="M0 0 C0.33 0.66 0.66 1.32 1 2 C1.66 2.33 2.32 2.66 3 3 C4 6 4 6 3.0625 8.1875 C2.5365625 9.0846875 2.5365625 9.0846875 2 10 C0.39644899 6.49223216 -0.22036864 3.85645121 0 0 Z " fill="#234938" transform="translate(202,112)"/>
<path d="M0 0 C1.46726798 3.81489674 0.43336419 6.29011622 -1 10 C-1.66 10 -2.32 10 -3 10 C-2.25 3.375 -2.25 3.375 0 0 Z " fill="#2A4937" transform="translate(351,107)"/>
<path d="M0 0 C2.64 0.66 5.28 1.32 8 2 C7.67 2.66 7.34 3.32 7 4 C4.4375 4.625 4.4375 4.625 2 5 C1.34 3.35 0.68 1.7 0 0 Z " fill="#264632" transform="translate(122,103)"/>
<path d="M0 0 C1.5625 1.8125 1.5625 1.8125 3 4 C2.67 4.99 2.34 5.98 2 7 C0 5.6875 0 5.6875 -2 4 C-2 3.01 -2 2.02 -2 1 C-1.34 0.67 -0.68 0.34 0 0 Z " fill="#264A33" transform="translate(211,80)"/>
<path d="M0 0 C0.66 0.66 1.32 1.32 2 2 C0.37660195 3.70884005 -1.29319053 5.37446717 -3 7 C-3.66 7 -4.32 7 -5 7 C-3.70700306 4.11562221 -2.34058637 2.12780579 0 0 Z " fill="#2A4938" transform="translate(624,73)"/>
<path d="M0 0 C1.32 0.66 2.64 1.32 4 2 C3.34 2 2.68 2 2 2 C1.896875 2.61875 1.79375 3.2375 1.6875 3.875 C1 6 1 6 -2 8 C-1.47731534 5.23723823 -0.89130413 2.6739124 0 0 Z " fill="#244D37" transform="translate(339,68)"/>
<path d="M0 0 C0 0.33 0 0.66 0 1 C-2.31 1.33 -4.62 1.66 -7 2 C-7.33 2.99 -7.66 3.98 -8 5 C-8.66 4.67 -9.32 4.34 -10 4 C-10 3.34 -10 2.68 -10 2 C-3.375 -1.125 -3.375 -1.125 0 0 Z " fill="#2B4A38" transform="translate(930,63)"/>
<path d="M0 0 C0.99 1.32 1.98 2.64 3 4 C2.01 4.99 1.02 5.98 0 7 C-0.66 6.01 -1.32 5.02 -2 4 C-1.34 2.68 -0.68 1.36 0 0 Z " fill="#284A39" transform="translate(307,157)"/>
<path d="M0 0 C2.64 0 5.28 0 8 0 C8.33 1.65 8.66 3.3 9 5 C8.2575 4.54625 7.515 4.0925 6.75 3.625 C4.53069422 2.31359204 2.32032178 1.11719197 0 0 Z " fill="#32503C" transform="translate(735,61)"/>
</svg>
